<svg xmlns="http://www.w3.org/2000/svg" xmlns:xlink="http://www.w3.org/1999/xlink" width="50" zoomAndPan="magnify" viewBox="0 0 37.5 37.499999" height="50" preserveAspectRatio="xMidYMid meet" version="1.0"><defs><filter x="0%" y="0%" width="100%" height="100%" id="id1"><feColorMatrix values="0 0 0 0 1 0 0 0 0 1 0 0 0 0 1 0 0 0 1 0" color-interpolation-filters="sRGB"/></filter><clipPath id="id2"><path d="M 6 5 L 37.007812 5 L 37.007812 37 L 6 37 Z M 6 5 " clip-rule="nonzero"/></clipPath><clipPath id="id3"><path d="M 31.929688 3.292969 L 38.824219 10.1875 L 9.125 39.886719 L 2.230469 32.992188 Z M 31.929688 3.292969 " clip-rule="nonzero"/></clipPath><clipPath id="id4"><path d="M 27.28125 -1.359375 L 46.371094 17.734375 L 16.671875 47.433594 L -2.417969 28.339844 Z M 27.28125 -1.359375 " clip-rule="nonzero"/></clipPath><clipPath id="id5"><path d="M 27 11 L 29 11 L 29 12 L 27 12 Z M 27 11 " clip-rule="nonzero"/></clipPath><clipPath id="id6"><path d="M 31.929688 3.292969 L 38.824219 10.1875 L 9.125 39.886719 L 2.230469 32.992188 Z M 31.929688 3.292969 " clip-rule="nonzero"/></clipPath><clipPath id="id7"><path d="M 27.28125 -1.359375 L 46.371094 17.734375 L 16.671875 47.433594 L -2.417969 28.339844 Z M 27.28125 -1.359375 " clip-rule="nonzero"/></clipPath><mask id="id8"><g filter="url(#id1)"><rect x="-3.75" width="45" fill="#000000" y="-3.75" height="44.999999" fill-opacity="0.298"/></g></mask><clipPath id="id9"><path d="M 0.710938 0.132812 L 1.183594 0.132812 L 1.183594 0.84375 L 0.710938 0.84375 Z M 0.710938 0.132812 " clip-rule="nonzero"/></clipPath><clipPath id="id10"><path d="M 4.929688 -7.707031 L 11.824219 -0.8125 L -17.875 28.886719 L -24.769531 21.992188 Z M 4.929688 -7.707031 " clip-rule="nonzero"/></clipPath><clipPath id="id11"><path d="M 0.28125 -12.359375 L 19.371094 6.734375 L -10.328125 36.433594 L -29.417969 17.339844 Z M 0.28125 -12.359375 " clip-rule="nonzero"/></clipPath><clipPath id="id12"><rect x="0" width="2" y="0" height="1"/></clipPath><clipPath id="id13"><path d="M 5 28 L 15 28 L 15 37.007812 L 5 37.007812 Z M 5 28 " clip-rule="nonzero"/></clipPath><clipPath id="id14"><path d="M 31.929688 3.292969 L 38.824219 10.1875 L 9.125 39.886719 L 2.230469 32.992188 Z M 31.929688 3.292969 " clip-rule="nonzero"/></clipPath><clipPath id="id15"><path d="M 27.28125 -1.359375 L 46.371094 17.734375 L 16.671875 47.433594 L -2.417969 28.339844 Z M 27.28125 -1.359375 " clip-rule="nonzero"/></clipPath><mask id="id16"><g filter="url(#id1)"><rect x="-3.75" width="45" fill="#000000" y="-3.75" height="44.999999" fill-opacity="0.298"/></g></mask><clipPath id="id17"><path d="M 1 2 L 9 2 L 9 9 L 1 9 Z M 1 2 " clip-rule="nonzero"/></clipPath><clipPath id="id18"><path d="M 26.929688 -24.707031 L 33.824219 -17.8125 L 4.125 11.886719 L -2.769531 4.992188 Z M 26.929688 -24.707031 " clip-rule="nonzero"/></clipPath><clipPath id="id19"><path d="M 22.28125 -29.359375 L 41.371094 -10.265625 L 11.671875 19.433594 L -7.417969 0.339844 Z M 22.28125 -29.359375 " clip-rule="nonzero"/></clipPath><clipPath id="id20"><rect x="0" width="10" y="0" height="10"/></clipPath><clipPath id="id21"><path d="M 1 5 L 33 5 L 33 37 L 1 37 Z M 1 5 " clip-rule="nonzero"/></clipPath><clipPath id="id22"><path d="M -1.863281 10.273438 L 5.5625 2.847656 L 35.792969 33.074219 L 28.367188 40.5 Z M -1.863281 10.273438 " clip-rule="nonzero"/></clipPath><clipPath id="id23"><path d="M -14.179688 22.589844 L 5.445312 2.964844 L 35.671875 33.195312 L 16.050781 52.816406 Z M -14.179688 22.589844 " clip-rule="nonzero"/></clipPath><clipPath id="id24"><path d="M 23 27 L 34 27 L 34 37.007812 L 23 37.007812 Z M 23 27 " clip-rule="nonzero"/></clipPath><clipPath id="id25"><path d="M -1.863281 10.273438 L 5.5625 2.847656 L 35.792969 33.074219 L 28.367188 40.5 Z M -1.863281 10.273438 " clip-rule="nonzero"/></clipPath><clipPath id="id26"><path d="M -14.179688 22.589844 L 5.445312 2.964844 L 35.671875 33.195312 L 16.050781 52.816406 Z M -14.179688 22.589844 " clip-rule="nonzero"/></clipPath><mask id="id27"><g filter="url(#id1)"><rect x="-3.75" width="45" fill="#000000" y="-3.75" height="44.999999" fill-opacity="0.298"/></g></mask><clipPath id="id28"><path d="M 3 1 L 10 1 L 10 10 L 3 10 Z M 3 1 " clip-rule="nonzero"/></clipPath><clipPath id="id29"><path d="M -24.863281 -16.726562 L -17.4375 -24.152344 L 12.792969 6.074219 L 5.367188 13.5 Z M -24.863281 -16.726562 " clip-rule="nonzero"/></clipPath><clipPath id="id30"><path d="M -37.179688 -4.410156 L -17.554688 -24.035156 L 12.671875 6.195312 L -6.949219 25.816406 Z M -37.179688 -4.410156 " clip-rule="nonzero"/></clipPath><clipPath id="id31"><rect x="0" width="11" y="0" height="11"/></clipPath><clipPath id="id32"><path d="M 15.667969 0 L 25.417969 0 L 25.417969 18 L 15.667969 18 Z M 15.667969 0 " clip-rule="nonzero"/></clipPath></defs><g clip-path="url(#id2)"><g clip-path="url(#id3)"><g clip-path="url(#id4)"><path fill="#fa0606" d="M 22.886719 18.832031 C 21.378906 20.339844 9.441406 29.398438 6.445312 34.027344 C 5.191406 35.960938 7.179688 37.53125 8.859375 36.441406 C 13.128906 33.675781 15.019531 29.09375 24.167969 19.945312 C 25.417969 18.695312 26.410156 19.621094 28.546875 18.523438 C 30.453125 17.546875 37.566406 9.121094 37.355469 8.910156 C 37.117188 8.671875 30.503906 15.515625 30.050781 15.058594 C 29.589844 14.597656 36.457031 8.195312 36.257812 7.8125 C 36.058594 7.429688 29.453125 14.464844 28.914062 13.925781 C 28.371094 13.378906 35.453125 7.007812 35.160156 6.714844 C 34.871094 6.425781 28.222656 13.234375 27.78125 12.789062 C 27.289062 12.300781 34.28125 5.835938 34.0625 5.617188 C 33.691406 5.246094 25.949219 12.117188 24.636719 13.890625 C 23.324219 15.667969 24.398438 17.324219 22.886719 18.832031 Z M 22.886719 18.832031 " fill-opacity="1" fill-rule="nonzero"/></g></g></g><g clip-path="url(#id5)"><g clip-path="url(#id6)"><g clip-path="url(#id7)"><g mask="url(#id8)"><g transform="matrix(1, 0, 0, 1, 27, 11)"><g clip-path="url(#id12)"><g clip-path="url(#id9)"><g clip-path="url(#id10)"><g clip-path="url(#id11)"><path fill="#fa0606" d="M 0.964844 0.535156 C 0.914062 0.578125 0.859375 0.589844 0.839844 0.5625 C 0.820312 0.53125 0.847656 0.472656 0.898438 0.425781 C 0.949219 0.382812 1.003906 0.371094 1.019531 0.402344 C 1.039062 0.429688 1.015625 0.492188 0.964844 0.535156 Z M 0.964844 0.535156 " fill-opacity="0.7765" fill-rule="nonzero"/></g></g></g></g></g></g></g></g></g><g clip-path="url(#id13)"><g clip-path="url(#id14)"><g clip-path="url(#id15)"><g mask="url(#id16)"><g transform="matrix(1, 0, 0, 1, 5, 28)"><g clip-path="url(#id20)"><g clip-path="url(#id17)"><g clip-path="url(#id18)"><g clip-path="url(#id19)"><path fill="#fa0606" d="M 1.660156 6.144531 C 1.144531 6.949219 1.300781 8.03125 2.238281 8.367188 C 3.277344 8.742188 4.480469 7.738281 5.085938 7.144531 C 6.152344 6.09375 6.824219 5.199219 7.738281 4.035156 C 8.019531 3.675781 8.554688 3.007812 8.789062 2.648438 C 7.949219 3.484375 7.269531 4.425781 6.28125 5.101562 C 5.269531 5.652344 4.097656 7.335938 2.832031 7.117188 C 2.203125 7.007812 2.054688 5.832031 1.660156 6.144531 Z M 1.660156 6.144531 " fill-opacity="1" fill-rule="nonzero"/></g></g></g></g></g></g></g></g></g><g clip-path="url(#id21)"><g clip-path="url(#id22)"><g clip-path="url(#id23)"><path fill="#fc5908" d="M 13.707031 19.0625 C 23.058594 28.410156 25.351562 33.71875 29.519531 36.152344 C 31.503906 37.3125 33.082031 35.363281 32 33.671875 C 29.503906 29.773438 24.097656 26.992188 14.9375 17.832031 C 13.871094 16.765625 16.726562 14.277344 13.082031 10.632812 C 8.523438 6.070312 3.800781 4.753906 2.179688 6.375 C 0.667969 7.886719 2.335938 12.839844 6.605469 17.109375 C 10.027344 20.53125 12.828125 18.183594 13.707031 19.0625 Z M 13.707031 19.0625 " fill-opacity="1" fill-rule="nonzero"/></g></g></g><g clip-path="url(#id24)"><g clip-path="url(#id25)"><g clip-path="url(#id26)"><g mask="url(#id27)"><g transform="matrix(1, 0, 0, 1, 23, 27)"><g clip-path="url(#id31)"><g clip-path="url(#id28)"><g clip-path="url(#id29)"><g clip-path="url(#id30)"><path fill="#fc5908" d="M 6.667969 8.863281 C 7.488281 9.386719 8.597656 9.222656 8.945312 8.265625 C 9.332031 7.199219 8.3125 5.972656 7.710938 5.359375 C 6.640625 4.269531 5.730469 3.585938 4.542969 2.660156 C 4.171875 2.371094 3.496094 1.828125 3.128906 1.59375 C 3.976562 2.445312 4.9375 3.136719 5.625 4.144531 C 6.183594 5.175781 7.898438 6.367188 7.667969 7.664062 C 7.554688 8.304688 6.351562 8.464844 6.667969 8.863281 Z M 6.667969 8.863281 " fill-opacity="1" fill-rule="nonzero"/></g></g></g></g></g></g></g></g></g><g clip-path="url(#id32)"><path fill="#ffa959" d="M 24.902344 7.796875 C 24.820312 8.007812 24.722656 8.199219 24.613281 8.382812 C 24.394531 8.742188 24.132812 9.0625 23.847656 9.382812 C 23.5625 9.699219 23.257812 10.011719 22.945312 10.347656 C 22.632812 10.679688 22.316406 11.03125 22.015625 11.425781 C 21.9375 11.527344 21.867188 11.628906 21.792969 11.734375 C 21.722656 11.839844 21.652344 11.949219 21.582031 12.0625 C 21.449219 12.292969 21.328125 12.535156 21.226562 12.800781 C 21.203125 12.867188 21.179688 12.933594 21.15625 13.003906 C 21.148438 13.039062 21.136719 13.074219 21.125 13.109375 L 21.101562 13.214844 C 21.0625 13.355469 21.039062 13.503906 21.019531 13.652344 C 20.988281 13.949219 21 14.253906 21.058594 14.542969 C 21.117188 14.835938 21.222656 15.109375 21.355469 15.351562 C 21.484375 15.59375 21.644531 15.8125 21.820312 16.003906 C 21.996094 16.195312 22.1875 16.359375 22.390625 16.503906 C 22.441406 16.539062 22.492188 16.574219 22.542969 16.609375 L 22.703125 16.707031 C 22.753906 16.738281 22.808594 16.769531 22.863281 16.796875 C 22.917969 16.824219 22.972656 16.851562 23.03125 16.875 C 23.007812 16.816406 22.984375 16.761719 22.960938 16.703125 C 22.949219 16.675781 22.9375 16.648438 22.921875 16.621094 C 22.910156 16.59375 22.898438 16.5625 22.886719 16.535156 L 22.816406 16.371094 C 22.796875 16.316406 22.773438 16.261719 22.75 16.207031 C 22.664062 15.992188 22.582031 15.78125 22.519531 15.574219 C 22.457031 15.367188 22.40625 15.164062 22.382812 14.96875 C 22.355469 14.777344 22.347656 14.59375 22.363281 14.421875 C 22.363281 14.375 22.375 14.335938 22.378906 14.292969 C 22.382812 14.25 22.394531 14.207031 22.398438 14.167969 C 22.410156 14.125 22.421875 14.085938 22.429688 14.042969 L 22.464844 13.921875 C 22.492188 13.84375 22.523438 13.761719 22.558594 13.683594 L 22.582031 13.625 C 22.59375 13.601562 22.601562 13.582031 22.613281 13.5625 C 22.628906 13.523438 22.652344 13.484375 22.671875 13.441406 C 22.84375 13.121094 23.078125 12.789062 23.335938 12.445312 C 23.59375 12.105469 23.878906 11.75 24.15625 11.367188 C 24.433594 10.984375 24.707031 10.570312 24.933594 10.113281 C 25.046875 9.886719 25.148438 9.648438 25.226562 9.398438 C 25.308594 9.148438 25.367188 8.886719 25.390625 8.621094 C 25.417969 8.359375 25.410156 8.089844 25.363281 7.835938 C 25.316406 7.578125 25.234375 7.335938 25.109375 7.121094 C 25.050781 7.363281 24.988281 7.589844 24.902344 7.796875 Z M 23.96875 4.035156 C 23.878906 4.347656 23.761719 4.644531 23.621094 4.921875 C 23.34375 5.484375 22.980469 5.988281 22.582031 6.476562 C 22.183594 6.96875 21.75 7.441406 21.304688 7.933594 C 20.863281 8.425781 20.410156 8.933594 19.988281 9.496094 C 19.878906 9.636719 19.777344 9.78125 19.675781 9.929688 C 19.574219 10.078125 19.476562 10.230469 19.378906 10.386719 C 19.191406 10.703125 19.015625 11.039062 18.878906 11.398438 C 18.738281 11.757812 18.632812 12.144531 18.578125 12.542969 C 18.527344 12.941406 18.535156 13.351562 18.605469 13.746094 C 18.671875 14.140625 18.800781 14.511719 18.96875 14.855469 C 19.132812 15.195312 19.339844 15.503906 19.570312 15.78125 C 19.628906 15.851562 19.683594 15.921875 19.742188 15.988281 C 19.804688 16.050781 19.867188 16.117188 19.925781 16.179688 C 19.988281 16.246094 20.054688 16.304688 20.117188 16.363281 C 20.152344 16.394531 20.183594 16.421875 20.214844 16.453125 C 20.246094 16.480469 20.28125 16.507812 20.316406 16.539062 C 20.382812 16.59375 20.449219 16.648438 20.515625 16.703125 L 20.726562 16.859375 C 20.761719 16.882812 20.796875 16.910156 20.832031 16.933594 C 20.867188 16.957031 20.90625 16.980469 20.941406 17.003906 C 21.015625 17.050781 21.085938 17.097656 21.160156 17.140625 C 21.121094 17.0625 21.078125 16.988281 21.039062 16.910156 C 21.015625 16.875 20.996094 16.835938 20.972656 16.800781 C 20.953125 16.761719 20.933594 16.726562 20.914062 16.6875 L 20.792969 16.464844 C 20.753906 16.390625 20.714844 16.316406 20.675781 16.242188 C 20.527344 15.945312 20.382812 15.652344 20.265625 15.351562 C 20.152344 15.058594 20.054688 14.761719 19.996094 14.472656 C 19.933594 14.179688 19.902344 13.894531 19.90625 13.621094 C 19.910156 13.585938 19.90625 13.550781 19.910156 13.515625 C 19.914062 13.484375 19.914062 13.449219 19.917969 13.414062 L 19.921875 13.363281 C 19.921875 13.347656 19.925781 13.332031 19.925781 13.3125 L 19.941406 13.210938 C 19.945312 13.179688 19.953125 13.144531 19.957031 13.113281 L 19.976562 13.011719 C 19.992188 12.945312 20.007812 12.878906 20.023438 12.816406 C 20.058594 12.683594 20.101562 12.554688 20.152344 12.425781 L 20.191406 12.328125 L 20.234375 12.230469 C 20.261719 12.167969 20.292969 12.101562 20.324219 12.039062 C 20.574219 11.527344 20.925781 11.023438 21.308594 10.515625 C 21.691406 10.007812 22.109375 9.496094 22.515625 8.953125 C 22.925781 8.410156 23.328125 7.839844 23.667969 7.210938 C 23.839844 6.898438 23.992188 6.566406 24.117188 6.226562 C 24.246094 5.882812 24.34375 5.527344 24.398438 5.164062 C 24.511719 4.4375 24.445312 3.683594 24.160156 3.046875 C 24.121094 3.394531 24.0625 3.722656 23.96875 4.035156 Z M 22.671875 0 C 22.828125 0.410156 22.921875 0.851562 22.949219 1.300781 C 22.980469 1.753906 22.953125 2.214844 22.867188 2.667969 C 22.785156 3.121094 22.652344 3.5625 22.484375 3.988281 C 22.316406 4.414062 22.113281 4.820312 21.890625 5.214844 C 21.449219 6 20.929688 6.714844 20.402344 7.402344 C 19.875 8.085938 19.339844 8.738281 18.84375 9.394531 C 18.351562 10.050781 17.894531 10.710938 17.570312 11.394531 L 17.507812 11.523438 C 17.488281 11.5625 17.472656 11.609375 17.453125 11.652344 L 17.398438 11.78125 L 17.351562 11.910156 C 17.285156 12.082031 17.230469 12.257812 17.1875 12.4375 C 17.171875 12.480469 17.167969 12.523438 17.15625 12.570312 C 17.148438 12.613281 17.136719 12.65625 17.128906 12.703125 L 17.105469 12.835938 C 17.101562 12.882812 17.089844 12.925781 17.085938 12.972656 L 17.074219 13.109375 C 17.070312 13.132812 17.066406 13.152344 17.066406 13.175781 L 17.0625 13.246094 C 17.0625 13.289062 17.058594 13.335938 17.058594 13.382812 C 17.054688 13.40625 17.054688 13.429688 17.054688 13.449219 L 17.058594 13.519531 C 17.0625 13.890625 17.113281 14.265625 17.207031 14.644531 C 17.300781 15.019531 17.4375 15.398438 17.601562 15.777344 C 17.761719 16.152344 17.960938 16.523438 18.171875 16.890625 C 18.222656 16.984375 18.277344 17.074219 18.328125 17.167969 L 18.496094 17.445312 C 18.527344 17.488281 18.554688 17.535156 18.582031 17.582031 C 18.609375 17.628906 18.640625 17.671875 18.667969 17.71875 C 18.726562 17.8125 18.785156 17.902344 18.839844 18 C 18.75 17.9375 18.660156 17.875 18.570312 17.8125 C 18.527344 17.78125 18.484375 17.746094 18.441406 17.714844 C 18.394531 17.683594 18.355469 17.648438 18.3125 17.613281 L 18.054688 17.40625 C 17.972656 17.335938 17.890625 17.261719 17.808594 17.1875 C 17.769531 17.148438 17.726562 17.113281 17.6875 17.074219 C 17.648438 17.035156 17.609375 16.996094 17.570312 16.957031 L 17.394531 16.78125 L 17.339844 16.71875 C 17.261719 16.636719 17.1875 16.550781 17.113281 16.46875 C 17.042969 16.382812 16.972656 16.292969 16.902344 16.203125 C 16.628906 15.84375 16.378906 15.453125 16.179688 15.023438 C 15.980469 14.597656 15.832031 14.132812 15.753906 13.644531 C 15.675781 13.160156 15.671875 12.652344 15.742188 12.164062 C 15.8125 11.671875 15.945312 11.199219 16.125 10.753906 C 16.300781 10.308594 16.519531 9.890625 16.757812 9.496094 C 16.816406 9.398438 16.878906 9.300781 16.941406 9.203125 C 17.003906 9.109375 17.0625 9.011719 17.128906 8.921875 C 17.257812 8.734375 17.386719 8.554688 17.523438 8.375 C 18.058594 7.664062 18.632812 7.015625 19.191406 6.382812 C 19.753906 5.746094 20.304688 5.125 20.808594 4.480469 C 21.308594 3.835938 21.757812 3.164062 22.089844 2.425781 C 22.257812 2.058594 22.394531 1.671875 22.492188 1.265625 C 22.589844 0.859375 22.644531 0.4375 22.671875 0 " fill-opacity="1" fill-rule="nonzero"/></g></svg>